#Produced by polyHédronisme http://levskaya.github.com/polyhedronisme
group daaC
#vertices
v -2.3374060234948734e-17 5.666438844836056e-18 0.8660254037844387
v -0.649519052838329 5.666438844836056e-18 0.649519052838329
v -2.3374060234948734e-17 -0.649519052838329 0.649519052838329
v 0.649519052838329 5.666438844836056e-18 0.649519052838329
v -2.3374060234948734e-17 0.649519052838329 0.649519052838329
v -0.5773502691896257 -0.5773502691896257 0.5773502691896257
v -0.649519052838329 -0.649519052838329 1.1332877689672112e-17
v 0.5773502691896257 -0.5773502691896257 0.5773502691896257
v 0.649519052838329 -0.649519052838329 1.1332877689672112e-17
v 0.5773502691896257 0.5773502691896257 0.5773502691896257
v 0.649519052838329 0.649519052838329 1.1332877689672112e-17
v -0.5773502691896257 0.5773502691896257 0.5773502691896257
v -0.649519052838329 0.649519052838329 1.1332877689672112e-17
v 0.8660254037844387 5.666438844836056e-18 1.1332877689672112e-17
v 0.649519052838329 5.666438844836056e-18 -0.649519052838329
v 0.5773502691896257 -0.5773502691896257 -0.5773502691896257
v -2.3374060234948734e-17 -0.649519052838329 -0.649519052838329
v 0.5773502691896257 0.5773502691896257 -0.5773502691896257
v -2.3374060234948734e-17 0.649519052838329 -0.649519052838329
v -2.3374060234948734e-17 0.8660254037844387 1.1332877689672112e-17
v -0.5773502691896257 0.5773502691896257 -0.5773502691896257
v -0.649519052838329 5.666438844836056e-18 -0.649519052838329
v -0.8660254037844387 5.666438844836056e-18 1.1332877689672112e-17
v -0.5773502691896257 -0.5773502691896257 -0.5773502691896257
v -2.3374060234948734e-17 -0.8660254037844387 1.1332877689672112e-17
v -2.3374060234948734e-17 5.666438844836056e-18 -0.8660254037844387
#normal vector defs 
vn 0.23570226039551592 0.23570226039551592 -0.9428090415820634
vn -0.23570226039551592 0.23570226039551592 -0.9428090415820634
vn -0.2357022603955159 -0.2357022603955159 -0.9428090415820634
vn 0.2357022603955159 -0.2357022603955159 -0.9428090415820634
vn 0.9428090415820634 0.23570226039551592 -0.23570226039551592
vn 0.9428090415820634 -0.2357022603955159 -0.2357022603955159
vn 0.23570226039551592 -0.9428090415820634 -0.23570226039551592
vn -0.23570226039551592 0.9428090415820634 -0.23570226039551592
vn 0.2357022603955159 0.9428090415820634 -0.2357022603955159
vn -0.9428090415820634 -0.23570226039551592 -0.23570226039551592
vn -0.9428090415820634 0.2357022603955159 -0.2357022603955159
vn -0.2357022603955159 -0.9428090415820634 -0.2357022603955159
vn -0.9428090415820634 -0.23570226039551592 0.23570226039551592
vn 0.23570226039551592 -0.9428090415820634 0.23570226039551592
vn 0.9428090415820634 0.23570226039551592 0.23570226039551592
vn -0.23570226039551592 0.9428090415820634 0.23570226039551592
vn 0.9428090415820634 -0.2357022603955159 0.2357022603955159
vn 0.2357022603955159 0.9428090415820634 0.2357022603955159
vn -0.9428090415820634 0.2357022603955159 0.2357022603955159
vn -0.2357022603955159 -0.9428090415820634 0.2357022603955159
vn -0.23570226039551592 -0.2357022603955159 0.9428090415820634
vn 0.2357022603955159 -0.23570226039551592 0.9428090415820634
vn 0.23570226039551592 0.2357022603955159 0.9428090415820634
vn -0.2357022603955159 0.23570226039551592 0.9428090415820634
#face defs 
f 26//1 19//1 18//1 15//1 
f 26//2 22//2 21//2 19//2 
f 24//3 22//3 26//3 17//3 
f 16//4 17//4 26//4 15//4 
f 14//5 15//5 18//5 11//5 
f 16//6 15//6 14//6 9//6 
f 25//7 17//7 16//7 9//7 
f 20//8 19//8 21//8 13//8 
f 18//9 19//9 20//9 11//9 
f 23//10 22//10 24//10 7//10 
f 21//11 22//11 23//11 13//11 
f 24//12 17//12 25//12 7//12 
f 23//13 7//13 6//13 2//13 
f 25//14 9//14 8//14 3//14 
f 14//15 11//15 10//15 4//15 
f 20//16 13//16 12//16 5//16 
f 8//17 9//17 14//17 4//17 
f 10//18 11//18 20//18 5//18 
f 12//19 13//19 23//19 2//19 
f 6//20 7//20 25//20 3//20 
f 2//21 6//21 3//21 1//21 
f 3//22 8//22 4//22 1//22 
f 4//23 10//23 5//23 1//23 
f 5//24 12//24 2//24 1//24 
