#Produced by polyHédronisme http://levskaya.github.com/polyhedronisme
group T
#vertices
v 0.5773502691896258 0.5773502691896258 0.5773502691896258
v 0.5773502691896258 -0.5773502691896258 -0.5773502691896258
v -0.5773502691896258 0.5773502691896258 -0.5773502691896258
v -0.5773502691896258 -0.5773502691896258 0.5773502691896258
#normal vector defs 
vn 0.5773502691896257 0.5773502691896257 -0.5773502691896257
vn -0.5773502691896257 -0.5773502691896257 -0.5773502691896257
vn -0.5773502691896257 0.5773502691896257 0.5773502691896257
vn 0.5773502691896257 -0.5773502691896257 0.5773502691896257
#face defs 
f 1//1 2//1 3//1 
f 2//2 4//2 3//2 
f 1//3 3//3 4//3 
f 1//4 4//4 2//4 
