#Produced by polyHédronisme http://levskaya.github.com/polyhedronisme
group dT
#vertices
v 0.5773502691896257 0.5773502691896257 -0.5773502691896257
v -0.5773502691896257 0.5773502691896257 0.5773502691896257
v 0.5773502691896257 -0.5773502691896257 0.5773502691896257
v -0.5773502691896257 -0.5773502691896257 -0.5773502691896257
#normal vector defs 
vn 0.5773502691896258 -0.5773502691896258 -0.5773502691896258
vn -0.5773502691896258 0.5773502691896258 -0.5773502691896258
vn 0.5773502691896258 0.5773502691896258 0.5773502691896258
vn -0.5773502691896258 -0.5773502691896258 0.5773502691896258
#face defs 
f 3//1 4//1 1//1 
f 4//2 2//2 1//2 
f 2//3 3//3 1//3 
f 4//4 3//4 2//4 
