#Produced by polyHédronisme http://levskaya.github.com/polyhedronisme
group aC
#vertices
v -0.7071067811865475 1.387988382853408e-17 0.7071067811865475
v 9.253255885689386e-18 -0.7071067811865475 0.7071067811865475
v 9.253255885689386e-18 0.7071067811865475 0.7071067811865475
v 0.7071067811865475 1.387988382853408e-17 0.7071067811865475
v 0.7071067811865475 -0.7071067811865475 -4.857959339986928e-17
v 0.7071067811865475 1.387988382853408e-17 -0.7071067811865475
v 0.7071067811865475 0.7071067811865475 -4.857959339986928e-17
v 9.253255885689386e-18 0.7071067811865475 -0.7071067811865475
v -0.7071067811865475 0.7071067811865475 -4.857959339986928e-17
v -0.7071067811865475 1.387988382853408e-17 -0.7071067811865475
v -0.7071067811865475 -0.7071067811865475 -4.857959339986928e-17
v 9.253255885689386e-18 -0.7071067811865475 -0.7071067811865475
#normal vector defs 
vn 0 0 -1
vn 0.5773502691896257 -0.5773502691896257 -0.5773502691896257
vn 0.5773502691896257 0.5773502691896257 -0.5773502691896257
vn -0.5773502691896257 0.5773502691896257 -0.5773502691896257
vn -0.5773502691896257 -0.5773502691896257 -0.5773502691896257
vn 1 0 0
vn 0 1 0
vn -1 0 0
vn 0 -1 0
vn -0.5773502691896257 -0.5773502691896257 0.5773502691896257
vn 0.5773502691896257 -0.5773502691896257 0.5773502691896257
vn 0.5773502691896257 0.5773502691896257 0.5773502691896257
vn -0.5773502691896257 0.5773502691896257 0.5773502691896257
vn 0 0 1
#face defs 
f 8//1 6//1 12//1 10//1 
f 5//2 12//2 6//2 
f 6//3 8//3 7//3 
f 8//4 10//4 9//4 
f 10//5 12//5 11//5 
f 4//6 5//6 6//6 7//6 
f 3//7 7//7 8//7 9//7 
f 1//8 9//8 10//8 11//8 
f 2//9 11//9 12//9 5//9 
f 1//10 11//10 2//10 
f 2//11 5//11 4//11 
f 4//12 7//12 3//12 
f 3//13 9//13 1//13 
f 2//14 4//14 3//14 1//14 
