#Produced by polyHédronisme http://levskaya.github.com/polyhedronisme
group aaC
#vertices
v -0.40824829046386296 -0.40824829046386296 0.8164965809277259
v 0.40824829046386296 -0.40824829046386296 0.8164965809277259
v -0.8164965809277259 -0.40824829046386296 0.40824829046386296
v 0.40824829046386296 -0.8164965809277259 0.40824829046386296
v 0.40824829046386296 0.40824829046386296 0.8164965809277259
v 0.8164965809277259 0.40824829046386296 0.40824829046386296
v -0.40824829046386296 0.40824829046386296 0.8164965809277259
v -0.40824829046386296 0.8164965809277259 0.40824829046386296
v 0.8164965809277259 0.40824829046386296 -0.40824829046386296
v 0.8164965809277259 -0.40824829046386296 0.40824829046386296
v 0.8164965809277259 -0.40824829046386296 -0.40824829046386296
v 0.40824829046386296 -0.8164965809277259 -0.40824829046386296
v 0.40824829046386296 0.40824829046386296 -0.8164965809277259
v -0.40824829046386296 0.8164965809277259 -0.40824829046386296
v 0.40824829046386296 0.8164965809277259 0.40824829046386296
v 0.40824829046386296 0.8164965809277259 -0.40824829046386296
v -0.40824829046386296 0.40824829046386296 -0.8164965809277259
v -0.8164965809277259 -0.40824829046386296 -0.40824829046386296
v -0.8164965809277259 0.40824829046386296 0.40824829046386296
v -0.8164965809277259 0.40824829046386296 -0.40824829046386296
v -0.40824829046386296 -0.40824829046386296 -0.8164965809277259
v -0.40824829046386296 -0.8164965809277259 0.40824829046386296
v -0.40824829046386296 -0.8164965809277259 -0.40824829046386296
v 0.40824829046386296 -0.40824829046386296 -0.8164965809277259
#normal vector defs 
vn 0 0 -1
vn 0.7071067811865476 0 -0.7071067811865476
vn 0 -0.7071067811865476 -0.7071067811865476
vn 0 0.7071067811865476 -0.7071067811865476
vn -0.7071067811865476 0 -0.7071067811865476
vn 0.5773502691896257 -0.5773502691896257 -0.5773502691896257
vn 0.5773502691896257 0.5773502691896257 -0.5773502691896257
vn -0.5773502691896257 0.5773502691896257 -0.5773502691896257
vn -0.5773502691896257 -0.5773502691896257 -0.5773502691896257
vn -0.7071067811865476 -0.7071067811865476 0
vn 0.7071067811865476 -0.7071067811865476 0
vn 0.7071067811865476 0.7071067811865476 0
vn -0.7071067811865476 0.7071067811865476 0
vn 1 0 0
vn 0 1 0
vn -1 0 0
vn 0 -1 0
vn -0.5773502691896257 -0.5773502691896257 0.5773502691896257
vn 0.5773502691896257 -0.5773502691896257 0.5773502691896257
vn 0.5773502691896257 0.5773502691896257 0.5773502691896257
vn -0.5773502691896257 0.5773502691896257 0.5773502691896257
vn -0.7071067811865476 0 0.7071067811865476
vn 0 -0.7071067811865476 0.7071067811865476
vn 0.7071067811865476 0 0.7071067811865476
vn 0 0.7071067811865476 0.7071067811865476
vn 0 0 1
#face defs 
f 17//1 13//1 24//1 21//1 
f 11//2 24//2 13//2 9//2 
f 12//3 23//3 21//3 24//3 
f 13//4 17//4 14//4 16//4 
f 17//5 21//5 18//5 20//5 
f 11//6 12//6 24//6 
f 9//7 13//7 16//7 
f 14//8 17//8 20//8 
f 18//9 21//9 23//9 
f 3//10 18//10 23//10 22//10 
f 4//11 12//11 11//11 10//11 
f 6//12 9//12 16//12 15//12 
f 8//13 14//13 20//13 19//13 
f 6//14 10//14 11//14 9//14 
f 8//15 15//15 16//15 14//15 
f 3//16 19//16 20//16 18//16 
f 4//17 22//17 23//17 12//17 
f 1//18 3//18 22//18 
f 2//19 4//19 10//19 
f 5//20 6//20 15//20 
f 7//21 8//21 19//21 
f 7//22 19//22 3//22 1//22 
f 1//23 22//23 4//23 2//23 
f 2//24 10//24 6//24 5//24 
f 5//25 15//25 8//25 7//25 
f 1//26 2//26 5//26 7//26 
