#Produced by polyHédronisme http://levskaya.github.com/polyhedronisme
group C
#vertices
v 0.5773502691896257 0.5773502691896257 0.5773502691896257
v -0.5773502691896257 0.5773502691896257 0.5773502691896257
v -0.5773502691896257 -0.5773502691896257 0.5773502691896257
v 0.5773502691896257 -0.5773502691896257 0.5773502691896257
v 0.5773502691896257 -0.5773502691896257 -0.5773502691896257
v 0.5773502691896257 0.5773502691896257 -0.5773502691896257
v -0.5773502691896257 0.5773502691896257 -0.5773502691896257
v -0.5773502691896257 -0.5773502691896257 -0.5773502691896257
#normal vector defs 
vn 0 0 -1
vn 1 0 0
vn 0 1 0
vn -1 0 0
vn 0 -1 0
vn 0 0 1
#face defs 
f 6//1 5//1 8//1 7//1 
f 4//2 5//2 6//2 1//2 
f 1//3 6//3 7//3 2//3 
f 2//4 7//4 8//4 3//4 
f 3//5 8//5 5//5 4//5 
f 4//6 1//6 2//6 3//6 
